<svg width="957" height="293" xmlns="http://www.w3.org/2000/svg" xmlns:xlink="http://www.w3.org/1999/xlink" xml:space="preserve" overflow="hidden"><g transform="translate(-161 -213)"><path d="M713.705 337.855C717.867 312.36 734.539 294.964 759.559 294.964 783.312 294.964 800.392 314.396 801.658 337.855L713.705 337.855ZM872.51 376.312C875.835 305.076 837.084 248.431 759.559 248.431 695.788 248.431 642.853 294.557 642.853 358.916 642.853 429.315 690.789 470.6 761.211 470.6 809.576 470.6 855.838 449.539 868.755 400.992L802.496 400.992C795.822 416.375 779.15 424.067 762.048 424.067 732.051 424.067 714.949 405.042 713.705 376.312L872.51 376.312"/><path d="M411.929 254.516 341.078 254.516 341.078 366.992C341.078 404.227 317.732 413.932 302.304 413.932 279.795 413.932 267.307 404.227 267.307 376.312L267.307 254.516 196.433 254.516 196.433 380.746C196.433 435.785 214.372 470.6 276.469 470.6 301.467 470.6 328.975 457.23 342.322 435.785L343.159 435.785 343.159 464.515 411.929 464.515 411.929 254.516"/><path d="M650.567 254.516 578.471 254.516 538.453 393.301 537.616 393.301 498.028 254.516 424.258 254.516 496.354 464.515 578.042 464.515 650.567 254.516"/><path d="M861.29 253.159 935.716 253.159 968.042 298.425 999.916 253.159 1072.55 253.159 1003.26 350.433 1082.26 465.51 1007.09 465.51 967.341 407.259 926.893 465.51 855.318 465.51 930.694 353.758 861.29 253.159"/></g></svg>