<svg width="189" height="189" xmlns="http://www.w3.org/2000/svg" xmlns:xlink="http://www.w3.org/1999/xlink" xml:space="preserve" overflow="hidden"><g transform="translate(-249 -405)"><path d="M302.156 534.938C302.156 542.549 295.986 548.719 288.375 548.719 280.764 548.719 274.594 542.549 274.594 534.938 274.594 527.326 280.764 521.156 288.375 521.156 295.986 521.156 302.156 527.326 302.156 534.938Z"/><path d="M416.344 534.938C416.344 542.549 410.174 548.719 402.562 548.719 394.951 548.719 388.781 542.549 388.781 534.938 388.781 527.326 394.951 521.156 402.562 521.156 410.174 521.156 416.344 527.326 416.344 534.938Z"/><path d="M256.875 452.25 367.125 452.25 367.125 499.5 256.875 499.5Z"/><path d="M382.875 471.938 394.688 471.938C398.231 471.938 401.381 474.3 402.169 477.647L406.106 491.231C406.106 491.428 406.303 491.428 406.303 491.625L382.875 491.625 382.875 471.938ZM394.688 464.062 375 464.062 375 491.625 375 503.438 375 534.938 382.875 534.938C382.875 524.109 391.734 515.25 402.562 515.25 413.391 515.25 422.25 524.109 422.25 534.938 426.581 534.938 430.125 531.394 430.125 527.062L430.125 507.375C430.125 504.816 428.944 502.65 426.975 501.075L416.541 493.2C415.163 492.216 414.178 490.641 413.784 489.066L409.847 475.481C407.878 468.788 401.578 464.062 394.688 464.062Z"/><path d="M367.125 534.938 308.062 534.938C308.062 524.109 299.203 515.25 288.375 515.25 277.547 515.25 268.688 524.109 268.688 534.938L256.875 534.938 256.875 507.375 367.125 507.375 367.125 534.938Z"/></g></svg>