<svg width="189" height="189" xmlns="http://www.w3.org/2000/svg" xmlns:xlink="http://www.w3.org/1999/xlink" xml:space="preserve" overflow="hidden"><g transform="translate(-592 -312)"><path d="M603.812 453.75 769.188 453.75 769.188 461.625 603.812 461.625Z"/><path d="M623.36 402.966C621.398 402.812 619.634 401.71 618.635 400.013L605.978 378.483C605.569 377.759 605.824 376.84 606.548 376.43 606.682 376.354 606.827 376.3 606.978 376.268L611.628 375.284C613.001 374.995 614.43 375.358 615.497 376.268L632.566 390.888 664.991 384.084 631.966 356.594C631.327 356.06 631.242 355.109 631.776 354.47 631.993 354.211 632.291 354.032 632.621 353.962L639.449 352.531C640.694 352.267 641.99 352.405 643.152 352.924L697.415 377.294 743.105 367.716C749 366.477 765.285 370.753 766.213 375.175 767.76 382.544 753.022 385.637 753.022 385.637L676.713 401.651C664.145 404.289 651.266 405.126 638.463 404.138Z"/></g></svg>