<svg width="189" height="189" xmlns="http://www.w3.org/2000/svg" xmlns:xlink="http://www.w3.org/1999/xlink" xml:space="preserve" overflow="hidden"><g transform="translate(-345 -171)"><path d="M394.217 261.562 417.842 261.562 417.842 273.375 394.217 273.375Z"/><path d="M421.779 261.562 445.404 261.562 445.404 273.375 421.779 273.375Z"/><path d="M449.342 261.562 472.967 261.562 472.967 273.375 449.342 273.375Z"/><path d="M421.779 245.812 445.404 245.812 445.404 257.625 421.779 257.625Z"/><path d="M449.342 245.812 472.967 245.812 472.967 257.625 449.342 257.625Z"/><path d="M449.342 230.062 472.967 230.062 472.967 241.875 449.342 241.875Z"/><path d="M476.904 245.812 500.529 245.812 500.529 257.625 476.904 257.625Z"/><path d="M357.797 241.875 360.75 241.875 360.75 273.375 382.406 273.375 382.406 241.875 384.344 241.875C385.551 241.875 386.637 241.14 387.086 240.018L392.598 226.237C393.204 224.723 392.467 223.004 390.953 222.399 390.604 222.259 390.23 222.187 389.854 222.188L367.641 222.188 367.641 208.406C367.641 206.775 366.318 205.453 364.688 205.453 363.057 205.453 361.734 206.775 361.734 208.406L361.734 222.188 357.797 222.188C356.166 222.188 354.844 223.51 354.844 225.141L354.844 238.922C354.844 240.553 356.166 241.875 357.797 241.875Z"/><path d="M500.529 263.063 500.529 261.562 476.904 261.562 476.904 273.375 490.207 273.375 500.529 263.063Z"/><path d="M526.603 267.469 505.892 267.469C504.978 267.468 504.102 267.832 503.457 268.479L493.662 278.271C493.017 278.918 492.141 279.282 491.227 279.281L352.387 279.281C350.484 279.281 348.941 280.823 348.941 282.726 348.941 283.165 349.025 283.599 349.188 284.006L362.181 316.491C362.705 317.798 363.972 318.656 365.38 318.656L482.305 318.656C483.218 318.657 484.095 318.293 484.74 317.646L529.037 273.349C530.382 272.003 530.381 269.822 529.035 268.477 528.39 267.832 527.516 267.47 526.603 267.469Z"/></g></svg>