<svg width="189" height="189" xmlns="http://www.w3.org/2000/svg" xmlns:xlink="http://www.w3.org/1999/xlink" xml:space="preserve" overflow="hidden"><g transform="translate(-770 -159)"><path d="M842.167 301.435C842.167 309.755 835.422 316.5 827.102 316.5 818.781 316.5 812.037 309.755 812.037 301.435 812.037 293.115 818.781 286.37 827.102 286.37 835.422 286.37 842.167 293.115 842.167 301.435Z"/><path d="M911.709 211.894C911.25 202.96 908.6 195.213 904.737 190.5L883.294 190.5C879.439 195.213 876.779 202.96 876.312 211.894L885.278 221.441 885.278 235.781 862.531 235.781 862.531 216.094 868.438 216.094 868.438 208.219C868.438 203.87 864.912 200.344 860.562 200.344L797.562 200.344C793.213 200.344 789.688 203.87 789.688 208.219L789.688 216.094 795.594 216.094 795.594 245.625C791.245 245.625 787.719 249.151 787.719 253.5L787.719 290.906C787.719 295.255 791.245 298.781 795.594 298.781L804.321 298.781C805.775 286.204 817.149 277.187 829.726 278.641 840.302 279.863 848.644 288.206 849.866 298.781L873.235 298.781C874.584 286.193 885.881 277.08 898.47 278.429 911.059 279.777 920.171 291.075 918.823 303.663 918.786 304.006 918.742 304.347 918.69 304.688L939.312 304.688C941.487 304.688 943.251 302.926 943.252 300.752 943.252 300.117 943.099 299.492 942.805 298.929L928.979 272.426C930.598 268.573 931.434 264.436 931.438 260.257 931.51 250.708 927.146 241.666 919.625 235.781L902.792 235.781 902.792 221.441ZM844.812 245.625 813.312 245.625 813.312 223.969 844.812 223.969Z"/><path d="M911.073 301.435C911.073 309.755 904.328 316.5 896.008 316.5 887.688 316.5 880.943 309.755 880.943 301.435 880.943 293.115 887.688 286.37 896.008 286.37 904.328 286.37 911.073 293.115 911.073 301.435Z"/></g></svg>